<?xml version="1.0" encoding="UTF-8"?>
<svg id="bear" data-name="Layer 1" xmlns="http://www.w3.org/2000/svg" viewBox="0 0 93.6 103.2">
  <polygon points="73.2 76.24 73.2 52.24 68.4 52.24 68.4 28.24 73.2 28.24 73.2 18.64 68.4 18.64 68.4 13.84 58.8 13.84 58.8 18.64 34.8 18.64 34.8 13.84 25.2 13.84 25.2 18.64 20.4 18.64 20.4 28.24 25.2 28.24 25.2 52.24 20.4 52.24 20.4 76.24 15.6 76.24 15.6 90.64 20.4 90.64 25.2 90.64 30 90.64 34.8 90.64 39.6 90.64 54 90.64 58.8 90.64 63.6 90.64 68.4 90.64 73.2 90.64 78 90.64 78 76.24 73.2 76.24"/>
</svg>