<?xml version="1.0" encoding="UTF-8"?>
<svg id="Layer_1" data-name="Layer 1" xmlns="http://www.w3.org/2000/svg" viewBox="0 0 131.83 107.14">
  <polygon points="117.88 72.85 117.88 68.05 108.28 68.05 108.28 72.85 103.48 72.85 103.48 77.65 108.28 77.65 108.28 82.45 93.88 82.45 93.88 58.45 89.08 58.45 89.08 44.05 84.28 44.05 84.28 29.65 79.48 29.65 79.48 20.05 74.68 20.05 74.68 10.45 69.88 10.45 69.88 5.65 65.08 5.65 65.08 10.45 60.28 10.45 60.28 20.05 45.88 20.05 45.88 10.45 41.08 10.45 41.08 5.65 36.28 5.65 36.28 10.45 31.48 10.45 31.48 20.05 26.68 20.05 26.68 29.65 21.88 29.65 21.88 44.05 17.08 44.05 17.08 58.45 12.28 58.45 12.28 87.25 17.08 87.25 17.08 92.05 21.88 92.05 21.88 96.85 31.48 96.85 31.48 101.65 36.28 101.65 41.08 101.65 45.88 101.65 45.88 96.85 60.28 96.85 60.28 101.65 65.08 101.65 69.88 101.65 74.68 101.65 74.68 96.85 84.28 96.85 89.08 96.85 113.08 96.85 113.08 92.05 117.88 92.05 117.88 87.25 122.68 87.25 122.68 72.85 117.88 72.85"/>
</svg>