<?xml version="1.0" encoding="UTF-8"?>
<svg id="Layer_1" data-name="Layer 1" xmlns="http://www.w3.org/2000/svg" viewBox="0 0 86.12 94.32">
  <rect x="27.61" y="15.89" width="4.8" height="9.6"/>
  <rect x="32.41" y="11.09" width="4.8" height="4.8"/>
  <rect x="32.41" y="25.49" width="4.8" height="4.8"/>
  <rect x="46.81" y="25.49" width="4.8" height="4.8"/>
  <rect x="42.01" y="20.69" width="4.8" height="4.8"/>
  <rect x="46.81" y="15.89" width="4.8" height="4.8"/>
  <polyline points="70.81 68.69 75.61 68.69 75.61 49.49 70.81 49.49 70.81 44.69 66.01 44.69 66.01 39.89 51.61 39.89 51.61 35.09 22.81 35.09 22.81 39.89 18.01 39.89 18.01 73.49 22.81 73.49 27.61 73.49 27.61 78.29 46.81 78.29 46.81 73.49 51.61 73.49 56.41 73.49 66.01 73.49 66.01 68.69 70.8 68.69"/>
</svg>