<?xml version="1.0" encoding="UTF-8"?>
<svg id="Layer_1" data-name="Layer 1" xmlns="http://www.w3.org/2000/svg" viewBox="0 0 115.07 112.34">
  <polygon points="95.25 94.2 95.25 89.4 90.45 89.4 90.45 84.6 80.85 84.6 80.85 79.8 71.25 79.8 71.25 75 61.65 75 61.65 70.2 52.05 70.2 37.65 70.2 32.85 70.2 28.05 70.2 23.25 70.2 13.65 70.2 13.65 75 13.65 79.8 18.45 79.8 18.45 84.6 23.25 84.6 23.25 89.4 32.85 89.4 32.85 94.2 42.45 94.2 42.45 99 47.25 99 47.25 103.8 95.25 103.8 100.05 103.8 100.05 94.2 95.25 94.2"/>
  <polygon points="85.65 17.4 85.65 12.6 76.05 12.6 76.05 7.8 61.65 7.8 61.65 12.6 52.05 12.6 52.05 17.4 47.25 17.4 47.25 46.2 52.05 46.2 52.05 51 61.65 51 61.65 60.6 66.45 60.6 66.45 65.4 71.25 65.4 71.25 60.6 76.05 60.6 76.05 51 85.65 51 85.65 46.2 90.45 46.2 90.45 17.4 85.65 17.4"/>
</svg>