<?xml version="1.0" encoding="UTF-8"?>
<svg id="Layer_1" data-name="Layer 1" xmlns="http://www.w3.org/2000/svg" viewBox="0 0 1030.65 1149.17">
  <defs>
    <style>
      .cls-1 {
        fill: #163832;
      }
    </style>
  </defs>
  <path class="cls-1" d="M1007.13,65.72c-25.36-1.59-45.66-20.58-46.79-43.74,0-.19-.02-.39-.02-.58C959.89,9.5,949.3,0,936.23,0H93.57C80.5,0,69.92,9.51,69.5,21.42c0,.18-.01.36-.02.54-1.11,22.97-21.08,41.88-46.21,43.72-.23.02-.46.03-.69.05C9.88,66.5,0,76.05,0,87.64v970.63C0,1069.88,9.89,1079.42,22.59,1080.2c.21.01.42.03.64.04,25.25,1.83,45.27,20.89,46.26,43.97.04.91.05,1.81.03,2.71-.25,12.24,10.65,22.26,24.08,22.26h842.61c13.42,0,24.34-10,24.08-22.24-.02-.91,0-1.83.03-2.75,1.01-23.27,21.37-42.4,46.84-43.98.2-.01.41-.02.61-.03,12.81-.66,22.87-10.23,22.87-21.93V87.69c0-11.69-10.05-21.28-22.85-21.93-.22-.01-.45-.02-.67-.04Z"/>
</svg>